<?xml version="1.0" encoding="utf-8"?>
<!-- Generator: Adobe Illustrator 24.1.1, SVG Export Plug-In . SVG Version: 6.00 Build 0)  -->
<svg version="1.1" id="Layer_1" xmlns="http://www.w3.org/2000/svg" xmlns:xlink="http://www.w3.org/1999/xlink" x="0px" y="0px"
	 viewBox="0 0 512 512" style="enable-background:new 0 0 512 512;" xml:space="preserve">
<g>
	<path d="M489.74,111.3H161.39c-5.57,0-10.58,2.23-14.47,5.57L7.79,239.3C2.78,243.76,0,249.88,0,256c0,6.68,2.78,12.24,7.79,16.7
		l139.13,122.43c3.9,3.34,9.46,5.57,14.47,5.57h328.35c12.24,0,22.26-10.02,22.26-22.26V133.57
		C512,121.32,501.98,111.3,489.74,111.3z M467.48,356.17H169.74L56.21,256l114.09-100.17h297.18V356.17z M245.42,286.05L275.48,256
		l-30.05-30.05c-7.79-7.79-7.79-20.03,0-27.27c7.79-7.79,20.04-7.79,27.27,0l30.05,30.05l30.05-30.05c7.79-7.79,20.03-7.79,27.27,0
		c7.79,7.79,7.79,20.03,0,27.27L330.57,256l30.05,30.05c7.79,7.79,7.79,20.03,0,27.27c-3.9,3.9-8.9,5.57-13.91,5.57
		c-5.01,0-10.02-1.67-13.91-5.57l-30.05-30.05l-30.05,30.05c-3.9,3.9-8.91,5.57-13.91,5.57c-5.01,0-10.02-1.67-13.91-5.57
		C238.19,306.09,238.19,293.84,245.42,286.05z"/>
</g>
</svg>
