<svg width="26" height="27" viewBox="0 0 26 27" fill="none" xmlns="http://www.w3.org/2000/svg">
<path d="M13 26.1875C16.2489 26.1875 19.3647 24.8508 21.6621 22.4714C23.9594 20.092 25.25 16.8649 25.25 13.5C25.25 13.2596 25.1578 13.0291 24.9937 12.8592C24.8296 12.6892 24.6071 12.5937 24.375 12.5937L13.875 12.5938L13.875 1.71875C13.875 1.4784 13.7828 1.24789 13.6187 1.07793C13.4546 0.907979 13.2321 0.812499 13 0.812499C9.7511 0.812499 6.63526 2.14922 4.33794 4.52858C2.04062 6.90795 0.750001 10.1351 0.750001 13.5C0.750001 16.8649 2.04062 20.0921 4.33794 22.4714C6.63527 24.8508 9.7511 26.1875 13 26.1875ZM12.125 2.625L12.125 13.5C12.125 13.7404 12.2172 13.9709 12.3813 14.1408C12.5454 14.3108 12.7679 14.4063 13 14.4063L23.5 14.4062C23.3258 16.4685 22.587 18.4364 21.3702 20.0788C20.1535 21.7212 18.5094 22.9697 16.6312 23.6778C14.753 24.3858 12.7187 24.5239 10.7674 24.0759C8.816 23.6278 7.02864 22.6122 5.61532 21.1484C4.20199 19.6846 3.22142 17.8334 2.78882 15.8124C2.35622 13.7913 2.48957 11.6843 3.1732 9.73907C3.85683 7.79379 5.06233 6.09102 6.64806 4.83083C8.23379 3.57063 10.1339 2.80539 12.125 2.625Z" fill="black"/>
<path d="M16.5 10.7812L23.8238 10.7812C23.9655 10.7885 24.1069 10.7599 24.2356 10.698C24.3644 10.6362 24.4766 10.5428 24.5628 10.4259C24.6489 10.3091 24.7063 10.1723 24.73 10.0273C24.7537 9.8824 24.743 9.73367 24.6988 9.59397C24.1018 7.6867 23.0768 5.95312 21.708 4.53537C20.3391 3.11762 18.6653 2.05606 16.8238 1.43772C16.6889 1.39197 16.5453 1.38089 16.4054 1.40543C16.2654 1.42998 16.1334 1.48941 16.0205 1.57861C15.9077 1.6678 15.8175 1.78408 15.7578 1.91742C15.698 2.05076 15.6705 2.19715 15.6775 2.34397L15.6775 9.8749C15.6771 10.1061 15.7621 10.3288 15.915 10.4972C16.0679 10.6657 16.2772 10.7673 16.5 10.7812ZM17.375 3.62178C19.658 4.70711 21.4896 6.60416 22.5375 8.96865L17.375 8.96866L17.375 3.62178Z" fill="black"/>
</svg>
