<svg width="22" height="25" viewBox="0 0 22 25" fill="none" xmlns="http://www.w3.org/2000/svg">
<path d="M3.88281 21.0938H21.0215C21.5609 21.0938 21.998 20.6566 21.998 20.1172V0.976562C21.998 0.437164 21.5609 0 21.0215 0H3.88281C2.26729 0 0.953125 1.31416 0.953125 2.92969V22.0703C0.953125 23.6858 2.26729 25 3.88281 25H21.0215C21.5609 25 21.998 24.5628 21.998 24.0234C21.998 23.484 21.5609 23.0469 21.0215 23.0469H3.88281C3.34437 23.0469 2.90625 22.6088 2.90625 22.0703C2.90625 21.5319 3.34437 21.0938 3.88281 21.0938ZM2.90625 2.92969C2.90625 2.39124 3.34437 1.95312 3.88281 1.95312H20.0449V19.1406H6.8125V4.88281C6.8125 4.34341 6.37534 3.90625 5.83594 3.90625C5.29654 3.90625 4.85938 4.34341 4.85938 4.88281V19.1406H3.88281C3.54063 19.1406 3.21181 19.1996 2.90625 19.3079V2.92969ZM10.9291 15.2342C11.945 15.966 12.9463 16.51 12.9885 16.5327C13.1335 16.6111 13.2933 16.6504 13.4531 16.6504C13.6132 16.6504 13.773 16.6111 13.9179 16.5327C13.9601 16.51 14.9615 15.9662 15.9771 15.2342C17.5863 14.0747 18.3359 13.0972 18.3359 12.1582C18.3359 11.6188 17.8988 11.1816 17.3594 11.1816C16.8267 11.1816 16.3935 11.6083 16.383 12.1386C16.3647 12.1984 16.1743 12.7018 14.7385 13.7188C14.6349 13.7922 14.5315 13.8632 14.4297 13.9318V10.1181C15.4289 9.72652 16.1387 8.75359 16.1387 7.61719C16.1387 6.13651 14.934 4.93164 13.4531 4.93164C11.9723 4.93164 10.7676 6.13651 10.7676 7.61719C10.7676 8.75359 11.4773 9.72652 12.4766 10.1181V13.9318C12.3747 13.8634 12.2713 13.7922 12.1678 13.7188C10.7321 12.7018 10.5416 12.1986 10.5232 12.1386C10.5128 11.6083 10.0796 11.1816 9.54688 11.1816C9.00748 11.1816 8.57031 11.6188 8.57031 12.1582C8.57031 13.0972 9.3199 14.0747 10.9291 15.2342ZM13.4531 6.88477C13.8569 6.88477 14.1855 7.2134 14.1855 7.61719C14.1855 8.02097 13.8569 8.34961 13.4531 8.34961C13.0493 8.34961 12.7207 8.02097 12.7207 7.61719C12.7207 7.2134 13.0493 6.88477 13.4531 6.88477Z" fill="#303030"/>
</svg>
